<svg focusable="false"
	 xmlns="http://www.w3.org/2000/svg" xmlns:xlink="http://www.w3.org/1999/xlink" x="0px" y="0px" viewBox="0 0 448 512" height="15"  width="15"
	 style="enable-background:new 0 0 448 512;" xml:space="preserve">
<path fill="#000000" d="M450,432V80c0-26.5-21.5-48-48-48H50C23.5,32,2,53.5,2,80v352c0,26.5,21.5,48,48,48h352
	C428.5,480,450,458.5,450,432z M114,192c-8.8,0-16-7.2-16-16v-32c0-8.8,7.2-16,16-16h226c8.8,0,16,7.2,16,16l1,32
	c0,8.8-8.2,16-17,16H114z M114,288c-8.8,0-16-7.2-16-16v-32c0-8.8,7.2-16,16-16h155c8.8,0,16,7.2,16,16v32c0,8.8-7.2,16-16,16H114z
	 M114,384c-8.8,0-16-7.2-16-16v-32c0-8.8,7.2-16,16-16h111c8.8,0,16,7.2,16,16v32c0,8.8-7.2,16-16,16H114z"/>
</svg>
