<svg id="Capa_1" data-name="Capa 1" xmlns="http://www.w3.org/2000/svg" viewBox="0 0 44.93 34.1"><path d="M15.34,25.33V18.51A1.74,1.74,0,0,1,17.1,16.8a1.71,1.71,0,1,0,0-3.41,5.21,5.21,0,0,0-5.28,5.12v6.82A3.47,3.47,0,0,1,8.3,28.74a1.71,1.71,0,1,0,0,3.41,3.47,3.47,0,0,1,3.52,3.41v6.82a5.2,5.2,0,0,0,5.28,5.11,1.71,1.71,0,1,0,0-3.41,1.73,1.73,0,0,1-1.76-1.7V35.56a6.69,6.69,0,0,0-2.43-5.12A6.68,6.68,0,0,0,15.34,25.33Z" transform="translate(-6.54 -13.39)"/><ellipse cx="22.89" cy="11.08" rx="2.64" ry="2.56"/><path d="M29.43,33.85a1.74,1.74,0,0,0-1.76,1.71v5.11a1.76,1.76,0,0,0,3.52,0V35.56A1.74,1.74,0,0,0,29.43,33.85Z" transform="translate(-6.54 -13.39)"/><path d="M45.09,30.44a6.69,6.69,0,0,0-2.43,5.12v6.82a1.73,1.73,0,0,1-1.76,1.7,1.71,1.71,0,1,0,0,3.41,5.2,5.2,0,0,0,5.28-5.11V35.56a3.47,3.47,0,0,1,3.52-3.41,1.71,1.71,0,1,0,0-3.41,3.47,3.47,0,0,1-3.52-3.41V18.51a5.21,5.21,0,0,0-5.28-5.12,1.71,1.71,0,1,0,0,3.41,1.74,1.74,0,0,1,1.76,1.71v6.82A6.68,6.68,0,0,0,45.09,30.44Z" transform="translate(-6.54 -13.39)"/></svg>